<?xml version="1.0"?>
<svg xmlns="http://www.w3.org/2000/svg" viewBox="0 0 64 64" width="512" height="512"><title>customer-service-representative-Consultant-support</title><g id="Flat"><path d="M34,29H19v5l-6-5H10a3,3,0,0,1-3-3V12a3,3,0,0,1,3-3H34a3,3,0,0,1,3,3V26A3,3,0,0,1,34,29Z" style="fill:#29abe2"/><rect x="12" y="12" width="2" height="2" style="fill:#f2f2f2"/><rect x="16" y="12" width="18" height="2" style="fill:#f2f2f2"/><rect x="10" y="16" width="14" height="2" style="fill:#f2f2f2"/><rect x="10" y="20" width="14" height="2" style="fill:#f2f2f2"/><rect x="10" y="24" width="14" height="2" style="fill:#f2f2f2"/><path d="M30,37H45v5l6-5h3a3,3,0,0,0,3-3V20a3,3,0,0,0-3-3H30a3,3,0,0,0-3,3V34A3,3,0,0,0,30,37Z" style="fill:#fbb03b"/><rect x="2" y="12" width="2" height="15" style="fill:#ccc"/><path d="M62,23H60V19a5.006,5.006,0,0,0-5-5H47V12h8a7.009,7.009,0,0,1,7,7Z" style="fill:#ccc"/><rect x="43" y="12" width="2" height="2" style="fill:#ccc"/><rect x="32" y="20" width="2" height="2" style="fill:#f2f2f2"/><rect x="36" y="20" width="8" height="2" style="fill:#f2f2f2"/><rect x="30" y="24" width="14" height="2" style="fill:#f2f2f2"/><rect x="30" y="28" width="14" height="2" style="fill:#f2f2f2"/><rect x="30" y="32" width="11" height="2" style="fill:#f2f2f2"/><path d="M51,30H49V27a1,1,0,0,1,1-1,2,2,0,1,0-2-2H46a4,4,0,1,1,5,3.873Z" style="fill:#f2f2f2"/><rect x="49" y="32" width="2" height="2" style="fill:#f2f2f2"/><rect x="6" y="47" width="14" height="8" transform="translate(64 38) rotate(90)" style="fill:#0071bc"/><rect x="0.5" y="48.5" width="12" height="5" transform="translate(57.5 44.5) rotate(90)" style="fill:#ccc"/><path d="M17,56.121l8.843,3.672a16.339,16.339,0,0,0,11.992.132l15.448-5.89a2.7,2.7,0,0,0,1.527-3.516h0a2.63,2.63,0,0,0-3.472-1.484l-8.361,3.55a5.169,5.169,0,0,1-1.444.355A2.5,2.5,0,0,0,41,48H33.243a6.061,6.061,0,0,1-2.708-.639,22.355,22.355,0,0,0-10-2.361H17Z" style="fill:#f2c09a"/><path d="M30.539,47.355a6.057,6.057,0,0,0,2.707.639H41a2.5,2.5,0,0,1,2.5,2.5,2.473,2.473,0,0,1-.214.993A2.5,2.5,0,0,0,41,49.994H33.246a6.057,6.057,0,0,1-2.707-.639,22.356,22.356,0,0,0-10-2.361H17v-2h3.538A22.356,22.356,0,0,1,30.539,47.355Z" style="fill:#e9937c"/><path d="M54.813,50.512h0a2.71,2.71,0,0,1-.006,1.993,2.629,2.629,0,0,0-3.466-1.471l-8.36,3.55A5.217,5.217,0,0,1,40.942,55H29V52.994H40.942a5.217,5.217,0,0,0,2.039-.415l8.36-3.55A2.629,2.629,0,0,1,54.813,50.512Z" style="fill:#e9937c"/><rect x="12" y="53" width="2" height="2" style="fill:#29abe2"/></g></svg>
