<svg height="464pt" viewBox="0 0 464 464" width="464pt" xmlns="http://www.w3.org/2000/svg"><path d="m0 303.703125v32.296875c0 17.671875 14.328125 32 32 32h400c17.671875 0 32-14.328125 32-32v-32.296875zm0 0" fill="#00479b"/><path d="m432 48h-24v208c0 8.835938-7.164062 16-16 16h-320c-8.835938 0-16-7.164062-16-16v-208h-24c-17.671875 0-32 14.328125-32 32v223.703125h464v-223.703125c0-17.671875-14.328125-32-32-32zm0 0" fill="#57a4ff"/><path d="m152 416h160l-16-48h-128zm0 0" fill="#a7a9ac"/><path d="m120 416c-17.671875 0-32 14.328125-32 32v16h288v-16c0-17.671875-14.328125-32-32-32zm0 0" fill="#58595b"/><path d="m392 0h-320c-8.835938 0-16 7.164062-16 16v32h352v-32c0-8.835938-7.164062-16-16-16zm0 0" fill="#006df0"/><path d="m408 48v208c-.027344 8.824219-7.175781 15.972656-16 16h-320c-8.824219-.027344-15.972656-7.175781-16-16v-208zm0 0" fill="#bddbff"/><path d="m320 81.601562v62.398438h62.398438c-6.445313-31.40625-30.992188-55.953125-62.398438-62.398438zm0 0" fill="#ed1c24"/><path d="m304 240c41.078125-.023438 75.46875-31.132812 79.601562-72h-87.601562v-87.601562c-42.417969 4.257812-74.042969 41.03125-71.910156 83.605468 2.132812 42.578125 37.28125 76 79.910156 75.996094zm0 0" fill="#ffcd00"/><path d="m128 152h24v88h-24zm0 0" fill="#ffcd00"/><path d="m176 96h24v144h-24zm0 0" fill="#7ed63e"/><path d="m56 48c-17.671875 0-32 14.328125-32 32v223.679688h-24v-223.679688c0-17.671875 14.328125-32 32-32zm0 0" fill="#2488ff"/><path d="m56 368h-24c-17.671875 0-32-14.328125-32-32v-32.320312h24v32.320312c0 17.671875 14.328125 32 32 32zm0 0" fill="#003f8a"/><g fill="#f1f2f2"><path d="m192 328h16v16h-16zm0 0"/><path d="m224 328h16v16h-16zm0 0"/><path d="m256 328h16v16h-16zm0 0"/><path d="m80 16h16v16h-16zm0 0"/><path d="m104 16h16v16h-16zm0 0"/><path d="m128 16h16v16h-16zm0 0"/></g><path d="m56 128v128c0 8.835938 7.164062 16 16 16h160c-97.28125 0-176-64.40625-176-144zm0 0" fill="#9bc9ff"/><path d="m80 184h24v56h-24zm0 0" fill="#ed1c24"/></svg>